<svg xmlns="http://www.w3.org/2000/svg" id="prefigure-tf2b-sample-figure" viewBox="0 0 310 310">
  <defs>
    <clipPath id="prefigure-tf2b-sample-clipPath-0">
      <rect x="5.0" y="5.0" width="300.0" height="300.0"/>
    </clipPath>
    <clipPath id="prefigure-tf2b-sample-clipPath-1">
      <rect x="5.0" y="5.0" width="300.0" height="300.0"/>
    </clipPath>
  </defs>
  <g id="prefigure-tf2b-sample-grid" stroke="#ccc" stroke-width="1">
    <line x1="5.0" y1="305.0" x2="5.0" y2="5.0"/>
    <line x1="25.0" y1="305.0" x2="25.0" y2="5.0"/>
    <line x1="45.0" y1="305.0" x2="45.0" y2="5.0"/>
    <line x1="65.0" y1="305.0" x2="65.0" y2="5.0"/>
    <line x1="85.0" y1="305.0" x2="85.0" y2="5.0"/>
    <line x1="105.0" y1="305.0" x2="105.0" y2="5.0"/>
    <line x1="125.0" y1="305.0" x2="125.0" y2="5.0"/>
    <line x1="145.0" y1="305.0" x2="145.0" y2="5.0"/>
    <line x1="165.0" y1="305.0" x2="165.0" y2="5.0"/>
    <line x1="185.0" y1="305.0" x2="185.0" y2="5.0"/>
    <line x1="205.0" y1="305.0" x2="205.0" y2="5.0"/>
    <line x1="225.0" y1="305.0" x2="225.0" y2="5.0"/>
    <line x1="245.0" y1="305.0" x2="245.0" y2="5.0"/>
    <line x1="265.0" y1="305.0" x2="265.0" y2="5.0"/>
    <line x1="285.0" y1="305.0" x2="285.0" y2="5.0"/>
    <line x1="305.0" y1="305.0" x2="305.0" y2="5.0"/>
    <line x1="5.0" y1="305.0" x2="305.0" y2="305.0"/>
    <line x1="5.0" y1="285.0" x2="305.0" y2="285.0"/>
    <line x1="5.0" y1="265.0" x2="305.0" y2="265.0"/>
    <line x1="5.0" y1="245.0" x2="305.0" y2="245.0"/>
    <line x1="5.0" y1="225.0" x2="305.0" y2="225.0"/>
    <line x1="5.0" y1="205.0" x2="305.0" y2="205.0"/>
    <line x1="5.0" y1="185.0" x2="305.0" y2="185.0"/>
    <line x1="5.0" y1="165.0" x2="305.0" y2="165.0"/>
    <line x1="5.0" y1="145.0" x2="305.0" y2="145.0"/>
    <line x1="5.0" y1="125.0" x2="305.0" y2="125.0"/>
    <line x1="5.0" y1="105.0" x2="305.0" y2="105.0"/>
    <line x1="5.0" y1="85.0" x2="305.0" y2="85.0"/>
    <line x1="5.0" y1="65.0" x2="305.0" y2="65.0"/>
    <line x1="5.0" y1="45.0" x2="305.0" y2="45.0"/>
    <line x1="5.0" y1="25.0" x2="305.0" y2="25.0"/>
    <line x1="5.0" y1="5.0" x2="305.0" y2="5.0"/>
  </g>
  <g id="prefigure-tf2b-sample-grid-axes">
    <g id="prefigure-tf2b-sample-grid" stroke="#ccc" stroke-width="1">
      <line x1="5.0" y1="305.0" x2="5.0" y2="5.0"/>
      <line x1="55.0" y1="305.0" x2="55.0" y2="5.0"/>
      <line x1="105.0" y1="305.0" x2="105.0" y2="5.0"/>
      <line x1="155.0" y1="305.0" x2="155.0" y2="5.0"/>
      <line x1="205.0" y1="305.0" x2="205.0" y2="5.0"/>
      <line x1="255.0" y1="305.0" x2="255.0" y2="5.0"/>
      <line x1="305.0" y1="305.0" x2="305.0" y2="5.0"/>
      <line x1="5.0" y1="305.0" x2="305.0" y2="305.0"/>
      <line x1="5.0" y1="255.0" x2="305.0" y2="255.0"/>
      <line x1="5.0" y1="205.0" x2="305.0" y2="205.0"/>
      <line x1="5.0" y1="155.0" x2="305.0" y2="155.0"/>
      <line x1="5.0" y1="105.0" x2="305.0" y2="105.0"/>
      <line x1="5.0" y1="55.0" x2="305.0" y2="55.0"/>
      <line x1="5.0" y1="5.0" x2="305.0" y2="5.0"/>
    </g>
    <g id="prefigure-tf2b-sample-axes" stroke="black" stroke-width="2">
      <line id="prefigure-tf2b-sample-line-46" x1="5.0" y1="205.0" x2="305.0" y2="205.0" stroke="black" stroke-width="2"/>
      <g>
        <line id="prefigure-tf2b-sample-line-47" x1="205.0" y1="208.0" x2="205.0" y2="202.0"/>
      </g>
      <line id="prefigure-tf2b-sample-line-48" x1="105.0" y1="305.0" x2="105.0" y2="5.0" stroke="black" stroke-width="2"/>
      <g>
        <line id="prefigure-tf2b-sample-line-49" x1="102.0" y1="105.0" x2="108.0" y2="105.0"/>
      </g>
    </g>
    <g id="prefigure-tf2b-sample-label-0" transform="translate(301.0,201.0) translate(-10.4,-8.2)">
      <g id="prefigure-tf2b-sample-g-0">
        <svg xmlns:xlink="http://www.w3.org/1999/xlink" style="vertical-align: -0.200px" width="10.352px" height="8.200px" role="img" focusable="false" viewBox="0 -442 572 453" x="0.0" y="0.0">
          <defs>
            <path id="prefigure-tf2b-sample-MJX-2-TEX-I-1D465" d="M52 289Q59 331 106 386T222 442Q257 442 286 424T329 379Q371 442 430 442Q467 442 494 420T522 361Q522 332 508 314T481 292T458 288Q439 288 427 299T415 328Q415 374 465 391Q454 404 425 404Q412 404 406 402Q368 386 350 336Q290 115 290 78Q290 50 306 38T341 26Q378 26 414 59T463 140Q466 150 469 151T485 153H489Q504 153 504 145Q504 144 502 134Q486 77 440 33T333 -11Q263 -11 227 52Q186 -10 133 -10H127Q78 -10 57 16T35 71Q35 103 54 123T99 143Q142 143 142 101Q142 81 130 66T107 46T94 41L91 40Q91 39 97 36T113 29T132 26Q168 26 194 71Q203 87 217 139T245 247T261 313Q266 340 266 352Q266 380 251 392T217 404Q177 404 142 372T93 290Q91 281 88 280T72 278H58Q52 284 52 289Z"/>
          </defs>
          <g stroke="currentColor" fill="currentColor" stroke-width="0" transform="scale(1,-1)">
            <g data-mml-node="math">
              <g data-mml-node="mi" data-semantic-type="identifier" data-semantic-role="latinletter" data-semantic-font="italic" data-semantic-annotation="clearspeak:simple" data-semantic-id="0" data-semantic-speech="x">
                <use data-c="1D465" xlink:href="#prefigure-tf2b-sample-MJX-2-TEX-I-1D465"/>
              </g>
            </g>
          </g>
        </svg>
      </g>
    </g>
    <g id="prefigure-tf2b-sample-label-1" transform="translate(109.0,9.0) translate(0.0,-0.0)">
      <g id="prefigure-tf2b-sample-g-1">
        <svg xmlns:xlink="http://www.w3.org/1999/xlink" style="vertical-align: -3.712px" width="8.872px" height="11.712px" role="img" focusable="false" viewBox="0 -442 490 647" x="0.0" y="0.0">
          <defs>
            <path id="prefigure-tf2b-sample-MJX-3-TEX-I-1D466" d="M21 287Q21 301 36 335T84 406T158 442Q199 442 224 419T250 355Q248 336 247 334Q247 331 231 288T198 191T182 105Q182 62 196 45T238 27Q261 27 281 38T312 61T339 94Q339 95 344 114T358 173T377 247Q415 397 419 404Q432 431 462 431Q475 431 483 424T494 412T496 403Q496 390 447 193T391 -23Q363 -106 294 -155T156 -205Q111 -205 77 -183T43 -117Q43 -95 50 -80T69 -58T89 -48T106 -45Q150 -45 150 -87Q150 -107 138 -122T115 -142T102 -147L99 -148Q101 -153 118 -160T152 -167H160Q177 -167 186 -165Q219 -156 247 -127T290 -65T313 -9T321 21L315 17Q309 13 296 6T270 -6Q250 -11 231 -11Q185 -11 150 11T104 82Q103 89 103 113Q103 170 138 262T173 379Q173 380 173 381Q173 390 173 393T169 400T158 404H154Q131 404 112 385T82 344T65 302T57 280Q55 278 41 278H27Q21 284 21 287Z"/>
          </defs>
          <g stroke="currentColor" fill="currentColor" stroke-width="0" transform="scale(1,-1)">
            <g data-mml-node="math">
              <g data-mml-node="mi" data-semantic-type="identifier" data-semantic-role="latinletter" data-semantic-font="italic" data-semantic-annotation="clearspeak:simple" data-semantic-id="0" data-semantic-speech="y">
                <use data-c="1D466" xlink:href="#prefigure-tf2b-sample-MJX-3-TEX-I-1D466"/>
              </g>
            </g>
          </g>
        </svg>
      </g>
    </g>
    <g id="prefigure-tf2b-sample-label-2" transform="translate(205.0,216.0) translate(-4.5,-0.0)">
      <g id="prefigure-tf2b-sample-g-2">
        <svg xmlns:xlink="http://www.w3.org/1999/xlink" style="vertical-align: -0.400px" width="9.048px" height="12.456px" role="img" focusable="false" viewBox="0 -666 500 688" x="0.0" y="0.0">
          <defs>
            <path id="prefigure-tf2b-sample-MJX-4-TEX-N-35" d="M164 157Q164 133 148 117T109 101H102Q148 22 224 22Q294 22 326 82Q345 115 345 210Q345 313 318 349Q292 382 260 382H254Q176 382 136 314Q132 307 129 306T114 304Q97 304 95 310Q93 314 93 485V614Q93 664 98 664Q100 666 102 666Q103 666 123 658T178 642T253 634Q324 634 389 662Q397 666 402 666Q410 666 410 648V635Q328 538 205 538Q174 538 149 544L139 546V374Q158 388 169 396T205 412T256 420Q337 420 393 355T449 201Q449 109 385 44T229 -22Q148 -22 99 32T50 154Q50 178 61 192T84 210T107 214Q132 214 148 197T164 157Z"/>
          </defs>
          <g stroke="currentColor" fill="currentColor" stroke-width="0" transform="scale(1,-1)">
            <g data-mml-node="math">
              <g data-mml-node="mtext" data-semantic-type="text" data-semantic-role="integer" data-semantic-font="normal" data-semantic-annotation="clearspeak:unit" data-semantic-id="0" data-semantic-speech="5">
                <use data-c="35" xlink:href="#prefigure-tf2b-sample-MJX-4-TEX-N-35"/>
              </g>
            </g>
          </g>
        </svg>
      </g>
    </g>
    <g id="prefigure-tf2b-sample-label-3" transform="translate(94.0,105.0) translate(-9.0,-6.2)">
      <g id="prefigure-tf2b-sample-g-3">
        <svg xmlns:xlink="http://www.w3.org/1999/xlink" style="vertical-align: -0.400px" width="9.048px" height="12.456px" role="img" focusable="false" viewBox="0 -666 500 688" x="0.0" y="0.0">
          <defs>
            <path id="prefigure-tf2b-sample-MJX-5-TEX-N-35" d="M164 157Q164 133 148 117T109 101H102Q148 22 224 22Q294 22 326 82Q345 115 345 210Q345 313 318 349Q292 382 260 382H254Q176 382 136 314Q132 307 129 306T114 304Q97 304 95 310Q93 314 93 485V614Q93 664 98 664Q100 666 102 666Q103 666 123 658T178 642T253 634Q324 634 389 662Q397 666 402 666Q410 666 410 648V635Q328 538 205 538Q174 538 149 544L139 546V374Q158 388 169 396T205 412T256 420Q337 420 393 355T449 201Q449 109 385 44T229 -22Q148 -22 99 32T50 154Q50 178 61 192T84 210T107 214Q132 214 148 197T164 157Z"/>
          </defs>
          <g stroke="currentColor" fill="currentColor" stroke-width="0" transform="scale(1,-1)">
            <g data-mml-node="math">
              <g data-mml-node="mtext" data-semantic-type="text" data-semantic-role="integer" data-semantic-font="normal" data-semantic-annotation="clearspeak:unit" data-semantic-id="0" data-semantic-speech="5">
                <use data-c="35" xlink:href="#prefigure-tf2b-sample-MJX-5-TEX-N-35"/>
              </g>
            </g>
          </g>
        </svg>
      </g>
    </g>
  </g>
</svg>
