<svg xmlns="http://www.w3.org/2000/svg" id="prefigure-el1b-sample-figure" viewBox="0 0 310 310">
  <defs>
    <clipPath id="prefigure-el1b-sample-clipPath-0">
      <rect x="5.0" y="5.0" width="300.0" height="300.0"/>
    </clipPath>
    <clipPath id="prefigure-el1b-sample-clipPath-1">
      <rect x="5.0" y="5.0" width="300.0" height="300.0"/>
    </clipPath>
  </defs>
  <g id="prefigure-el1b-sample-grid" stroke="#ccc" stroke-width="1">
    <line x1="5.0" y1="305.0" x2="5.0" y2="5.0"/>
    <line x1="35.0" y1="305.0" x2="35.0" y2="5.0"/>
    <line x1="65.0" y1="305.0" x2="65.0" y2="5.0"/>
    <line x1="95.0" y1="305.0" x2="95.0" y2="5.0"/>
    <line x1="125.0" y1="305.0" x2="125.0" y2="5.0"/>
    <line x1="155.0" y1="305.0" x2="155.0" y2="5.0"/>
    <line x1="185.0" y1="305.0" x2="185.0" y2="5.0"/>
    <line x1="215.0" y1="305.0" x2="215.0" y2="5.0"/>
    <line x1="245.0" y1="305.0" x2="245.0" y2="5.0"/>
    <line x1="275.0" y1="305.0" x2="275.0" y2="5.0"/>
    <line x1="305.0" y1="305.0" x2="305.0" y2="5.0"/>
    <line x1="5.0" y1="305.0" x2="305.0" y2="305.0"/>
    <line x1="5.0" y1="275.0" x2="305.0" y2="275.0"/>
    <line x1="5.0" y1="245.0" x2="305.0" y2="245.0"/>
    <line x1="5.0" y1="215.0" x2="305.0" y2="215.0"/>
    <line x1="5.0" y1="185.0" x2="305.0" y2="185.0"/>
    <line x1="5.0" y1="155.0" x2="305.0" y2="155.0"/>
    <line x1="5.0" y1="125.0" x2="305.0" y2="125.0"/>
    <line x1="5.0" y1="95.0" x2="305.0" y2="95.0"/>
    <line x1="5.0" y1="65.0" x2="305.0" y2="65.0"/>
    <line x1="5.0" y1="35.0" x2="305.0" y2="35.0"/>
    <line x1="5.0" y1="5.0" x2="305.0" y2="5.0"/>
  </g>
  <g id="prefigure-el1b-sample-grid-axes">
    <g id="prefigure-el1b-sample-grid" stroke="#ccc" stroke-width="1">
      <line x1="5.0" y1="305.0" x2="5.0" y2="5.0"/>
      <line x1="42.5" y1="305.0" x2="42.5" y2="5.0"/>
      <line x1="80.0" y1="305.0" x2="80.0" y2="5.0"/>
      <line x1="117.5" y1="305.0" x2="117.5" y2="5.0"/>
      <line x1="155.0" y1="305.0" x2="155.0" y2="5.0"/>
      <line x1="192.5" y1="305.0" x2="192.5" y2="5.0"/>
      <line x1="230.0" y1="305.0" x2="230.0" y2="5.0"/>
      <line x1="267.5" y1="305.0" x2="267.5" y2="5.0"/>
      <line x1="305.0" y1="305.0" x2="305.0" y2="5.0"/>
      <line x1="5.0" y1="305.0" x2="305.0" y2="305.0"/>
      <line x1="5.0" y1="267.5" x2="305.0" y2="267.5"/>
      <line x1="5.0" y1="230.0" x2="305.0" y2="230.0"/>
      <line x1="5.0" y1="192.5" x2="305.0" y2="192.5"/>
      <line x1="5.0" y1="155.0" x2="305.0" y2="155.0"/>
      <line x1="5.0" y1="117.5" x2="305.0" y2="117.5"/>
      <line x1="5.0" y1="80.0" x2="305.0" y2="80.0"/>
      <line x1="5.0" y1="42.5" x2="305.0" y2="42.5"/>
      <line x1="5.0" y1="5.0" x2="305.0" y2="5.0"/>
    </g>
    <g id="prefigure-el1b-sample-axes" stroke="black" stroke-width="2">
      <line id="prefigure-el1b-sample-line-40" x1="5.0" y1="155.0" x2="305.0" y2="155.0" stroke="black" stroke-width="2"/>
      <g>
        <line id="prefigure-el1b-sample-line-41" x1="80.0" y1="158.0" x2="80.0" y2="152.0"/>
        <line id="prefigure-el1b-sample-line-42" x1="230.0" y1="158.0" x2="230.0" y2="152.0"/>
      </g>
      <line id="prefigure-el1b-sample-line-43" x1="155.0" y1="305.0" x2="155.0" y2="5.0" stroke="black" stroke-width="2"/>
      <g>
        <line id="prefigure-el1b-sample-line-44" x1="152.0" y1="230.0" x2="158.0" y2="230.0"/>
        <line id="prefigure-el1b-sample-line-45" x1="152.0" y1="80.0" x2="158.0" y2="80.0"/>
      </g>
    </g>
    <g id="prefigure-el1b-sample-label-0" transform="translate(301.0,151.0) translate(-10.4,-8.2)">
      <g id="prefigure-el1b-sample-g-1">
        <svg xmlns:xlink="http://www.w3.org/1999/xlink" style="vertical-align: -0.200px" width="10.352px" height="8.200px" role="img" focusable="false" viewBox="0 -442 572 453" x="0.0" y="0.0">
          <defs>
            <path id="prefigure-el1b-sample-MJX-2-TEX-I-1D465" d="M52 289Q59 331 106 386T222 442Q257 442 286 424T329 379Q371 442 430 442Q467 442 494 420T522 361Q522 332 508 314T481 292T458 288Q439 288 427 299T415 328Q415 374 465 391Q454 404 425 404Q412 404 406 402Q368 386 350 336Q290 115 290 78Q290 50 306 38T341 26Q378 26 414 59T463 140Q466 150 469 151T485 153H489Q504 153 504 145Q504 144 502 134Q486 77 440 33T333 -11Q263 -11 227 52Q186 -10 133 -10H127Q78 -10 57 16T35 71Q35 103 54 123T99 143Q142 143 142 101Q142 81 130 66T107 46T94 41L91 40Q91 39 97 36T113 29T132 26Q168 26 194 71Q203 87 217 139T245 247T261 313Q266 340 266 352Q266 380 251 392T217 404Q177 404 142 372T93 290Q91 281 88 280T72 278H58Q52 284 52 289Z"/>
          </defs>
          <g stroke="currentColor" fill="currentColor" stroke-width="0" transform="scale(1,-1)">
            <g data-mml-node="math">
              <g data-mml-node="mi" data-semantic-type="identifier" data-semantic-role="latinletter" data-semantic-font="italic" data-semantic-annotation="clearspeak:simple" data-semantic-id="0" data-semantic-speech="x">
                <use data-c="1D465" xlink:href="#prefigure-el1b-sample-MJX-2-TEX-I-1D465"/>
              </g>
            </g>
          </g>
        </svg>
      </g>
    </g>
    <g id="prefigure-el1b-sample-label-1" transform="translate(159.0,9.0) translate(0.0,-0.0)">
      <g id="prefigure-el1b-sample-g-2">
        <svg xmlns:xlink="http://www.w3.org/1999/xlink" style="vertical-align: -3.712px" width="8.872px" height="11.712px" role="img" focusable="false" viewBox="0 -442 490 647" x="0.0" y="0.0">
          <defs>
            <path id="prefigure-el1b-sample-MJX-3-TEX-I-1D466" d="M21 287Q21 301 36 335T84 406T158 442Q199 442 224 419T250 355Q248 336 247 334Q247 331 231 288T198 191T182 105Q182 62 196 45T238 27Q261 27 281 38T312 61T339 94Q339 95 344 114T358 173T377 247Q415 397 419 404Q432 431 462 431Q475 431 483 424T494 412T496 403Q496 390 447 193T391 -23Q363 -106 294 -155T156 -205Q111 -205 77 -183T43 -117Q43 -95 50 -80T69 -58T89 -48T106 -45Q150 -45 150 -87Q150 -107 138 -122T115 -142T102 -147L99 -148Q101 -153 118 -160T152 -167H160Q177 -167 186 -165Q219 -156 247 -127T290 -65T313 -9T321 21L315 17Q309 13 296 6T270 -6Q250 -11 231 -11Q185 -11 150 11T104 82Q103 89 103 113Q103 170 138 262T173 379Q173 380 173 381Q173 390 173 393T169 400T158 404H154Q131 404 112 385T82 344T65 302T57 280Q55 278 41 278H27Q21 284 21 287Z"/>
          </defs>
          <g stroke="currentColor" fill="currentColor" stroke-width="0" transform="scale(1,-1)">
            <g data-mml-node="math">
              <g data-mml-node="mi" data-semantic-type="identifier" data-semantic-role="latinletter" data-semantic-font="italic" data-semantic-annotation="clearspeak:simple" data-semantic-id="0" data-semantic-speech="y">
                <use data-c="1D466" xlink:href="#prefigure-el1b-sample-MJX-3-TEX-I-1D466"/>
              </g>
            </g>
          </g>
        </svg>
      </g>
    </g>
    <g id="prefigure-el1b-sample-label-2" transform="translate(80.0,166.0) translate(-7.5,-0.0)">
      <g id="prefigure-el1b-sample-g-3">
        <svg xmlns:xlink="http://www.w3.org/1999/xlink" style="vertical-align: -0.400px" width="15.080px" height="12.456px" role="img" focusable="false" viewBox="0 -666 833 688" x="0.0" y="0.0">
          <defs>
            <path id="prefigure-el1b-sample-MJX-4-TEX-N-2D" d="M11 179V252H277V179H11Z"/>
            <path id="prefigure-el1b-sample-MJX-4-TEX-N-35" d="M164 157Q164 133 148 117T109 101H102Q148 22 224 22Q294 22 326 82Q345 115 345 210Q345 313 318 349Q292 382 260 382H254Q176 382 136 314Q132 307 129 306T114 304Q97 304 95 310Q93 314 93 485V614Q93 664 98 664Q100 666 102 666Q103 666 123 658T178 642T253 634Q324 634 389 662Q397 666 402 666Q410 666 410 648V635Q328 538 205 538Q174 538 149 544L139 546V374Q158 388 169 396T205 412T256 420Q337 420 393 355T449 201Q449 109 385 44T229 -22Q148 -22 99 32T50 154Q50 178 61 192T84 210T107 214Q132 214 148 197T164 157Z"/>
          </defs>
          <g stroke="currentColor" fill="currentColor" stroke-width="0" transform="scale(1,-1)">
            <g data-mml-node="math">
              <g data-mml-node="mtext" data-semantic-type="text" data-semantic-role="unknown" data-semantic-font="normal" data-semantic-annotation="clearspeak:unit" data-semantic-id="0" data-semantic-speech="hyphen 5">
                <use data-c="2D" xlink:href="#prefigure-el1b-sample-MJX-4-TEX-N-2D"/>
                <use data-c="35" xlink:href="#prefigure-el1b-sample-MJX-4-TEX-N-35" transform="translate(333,0)"/>
              </g>
            </g>
          </g>
        </svg>
      </g>
    </g>
    <g id="prefigure-el1b-sample-label-3" transform="translate(230.0,166.0) translate(-4.5,-0.0)">
      <g id="prefigure-el1b-sample-g-4">
        <svg xmlns:xlink="http://www.w3.org/1999/xlink" style="vertical-align: -0.400px" width="9.048px" height="12.456px" role="img" focusable="false" viewBox="0 -666 500 688" x="0.0" y="0.0">
          <defs>
            <path id="prefigure-el1b-sample-MJX-5-TEX-N-35" d="M164 157Q164 133 148 117T109 101H102Q148 22 224 22Q294 22 326 82Q345 115 345 210Q345 313 318 349Q292 382 260 382H254Q176 382 136 314Q132 307 129 306T114 304Q97 304 95 310Q93 314 93 485V614Q93 664 98 664Q100 666 102 666Q103 666 123 658T178 642T253 634Q324 634 389 662Q397 666 402 666Q410 666 410 648V635Q328 538 205 538Q174 538 149 544L139 546V374Q158 388 169 396T205 412T256 420Q337 420 393 355T449 201Q449 109 385 44T229 -22Q148 -22 99 32T50 154Q50 178 61 192T84 210T107 214Q132 214 148 197T164 157Z"/>
          </defs>
          <g stroke="currentColor" fill="currentColor" stroke-width="0" transform="scale(1,-1)">
            <g data-mml-node="math">
              <g data-mml-node="mtext" data-semantic-type="text" data-semantic-role="integer" data-semantic-font="normal" data-semantic-annotation="clearspeak:unit" data-semantic-id="0" data-semantic-speech="5">
                <use data-c="35" xlink:href="#prefigure-el1b-sample-MJX-5-TEX-N-35"/>
              </g>
            </g>
          </g>
        </svg>
      </g>
    </g>
    <g id="prefigure-el1b-sample-label-4" transform="translate(144.0,230.0) translate(-15.1,-6.2)">
      <g id="prefigure-el1b-sample-g-5">
        <svg xmlns:xlink="http://www.w3.org/1999/xlink" style="vertical-align: -0.400px" width="15.080px" height="12.456px" role="img" focusable="false" viewBox="0 -666 833 688" x="0.0" y="0.0">
          <defs>
            <path id="prefigure-el1b-sample-MJX-6-TEX-N-2D" d="M11 179V252H277V179H11Z"/>
            <path id="prefigure-el1b-sample-MJX-6-TEX-N-35" d="M164 157Q164 133 148 117T109 101H102Q148 22 224 22Q294 22 326 82Q345 115 345 210Q345 313 318 349Q292 382 260 382H254Q176 382 136 314Q132 307 129 306T114 304Q97 304 95 310Q93 314 93 485V614Q93 664 98 664Q100 666 102 666Q103 666 123 658T178 642T253 634Q324 634 389 662Q397 666 402 666Q410 666 410 648V635Q328 538 205 538Q174 538 149 544L139 546V374Q158 388 169 396T205 412T256 420Q337 420 393 355T449 201Q449 109 385 44T229 -22Q148 -22 99 32T50 154Q50 178 61 192T84 210T107 214Q132 214 148 197T164 157Z"/>
          </defs>
          <g stroke="currentColor" fill="currentColor" stroke-width="0" transform="scale(1,-1)">
            <g data-mml-node="math">
              <g data-mml-node="mtext" data-semantic-type="text" data-semantic-role="unknown" data-semantic-font="normal" data-semantic-annotation="clearspeak:unit" data-semantic-id="0" data-semantic-speech="hyphen 5">
                <use data-c="2D" xlink:href="#prefigure-el1b-sample-MJX-6-TEX-N-2D"/>
                <use data-c="35" xlink:href="#prefigure-el1b-sample-MJX-6-TEX-N-35" transform="translate(333,0)"/>
              </g>
            </g>
          </g>
        </svg>
      </g>
    </g>
    <g id="prefigure-el1b-sample-label-5" transform="translate(144.0,80.0) translate(-9.0,-6.2)">
      <g id="prefigure-el1b-sample-g-6">
        <svg xmlns:xlink="http://www.w3.org/1999/xlink" style="vertical-align: -0.400px" width="9.048px" height="12.456px" role="img" focusable="false" viewBox="0 -666 500 688" x="0.0" y="0.0">
          <defs>
            <path id="prefigure-el1b-sample-MJX-7-TEX-N-35" d="M164 157Q164 133 148 117T109 101H102Q148 22 224 22Q294 22 326 82Q345 115 345 210Q345 313 318 349Q292 382 260 382H254Q176 382 136 314Q132 307 129 306T114 304Q97 304 95 310Q93 314 93 485V614Q93 664 98 664Q100 666 102 666Q103 666 123 658T178 642T253 634Q324 634 389 662Q397 666 402 666Q410 666 410 648V635Q328 538 205 538Q174 538 149 544L139 546V374Q158 388 169 396T205 412T256 420Q337 420 393 355T449 201Q449 109 385 44T229 -22Q148 -22 99 32T50 154Q50 178 61 192T84 210T107 214Q132 214 148 197T164 157Z"/>
          </defs>
          <g stroke="currentColor" fill="currentColor" stroke-width="0" transform="scale(1,-1)">
            <g data-mml-node="math">
              <g data-mml-node="mtext" data-semantic-type="text" data-semantic-role="integer" data-semantic-font="normal" data-semantic-annotation="clearspeak:unit" data-semantic-id="0" data-semantic-speech="5">
                <use data-c="35" xlink:href="#prefigure-el1b-sample-MJX-7-TEX-N-35"/>
              </g>
            </g>
          </g>
        </svg>
      </g>
    </g>
  </g>
  <g id="prefigure-el1b-sample-g-0">
    <g transform="translate(110.0,305.0) rotate(-90.0)">
      <g transform="translate(30.0,-4.0) translate(-28.8,-13.5)">
        <g id="prefigure-el1b-sample-g-7">
          <svg xmlns:xlink="http://www.w3.org/1999/xlink" style="vertical-align: -1.488px" width="57.624px" height="13.520px" role="img" focusable="false" viewBox="0 -665 3183.6 747" x="0.0" y="0.0">
            <defs>
              <path id="prefigure-el1b-sample-MJX-8-TEX-I-1D465" d="M52 289Q59 331 106 386T222 442Q257 442 286 424T329 379Q371 442 430 442Q467 442 494 420T522 361Q522 332 508 314T481 292T458 288Q439 288 427 299T415 328Q415 374 465 391Q454 404 425 404Q412 404 406 402Q368 386 350 336Q290 115 290 78Q290 50 306 38T341 26Q378 26 414 59T463 140Q466 150 469 151T485 153H489Q504 153 504 145Q504 144 502 134Q486 77 440 33T333 -11Q263 -11 227 52Q186 -10 133 -10H127Q78 -10 57 16T35 71Q35 103 54 123T99 143Q142 143 142 101Q142 81 130 66T107 46T94 41L91 40Q91 39 97 36T113 29T132 26Q168 26 194 71Q203 87 217 139T245 247T261 313Q266 340 266 352Q266 380 251 392T217 404Q177 404 142 372T93 290Q91 281 88 280T72 278H58Q52 284 52 289Z"/>
              <path id="prefigure-el1b-sample-MJX-8-TEX-N-3D" d="M56 347Q56 360 70 367H707Q722 359 722 347Q722 336 708 328L390 327H72Q56 332 56 347ZM56 153Q56 168 72 173H708Q722 163 722 153Q722 140 707 133H70Q56 140 56 153Z"/>
              <path id="prefigure-el1b-sample-MJX-8-TEX-N-2212" d="M84 237T84 250T98 270H679Q694 262 694 250T679 230H98Q84 237 84 250Z"/>
              <path id="prefigure-el1b-sample-MJX-8-TEX-N-33" d="M127 463Q100 463 85 480T69 524Q69 579 117 622T233 665Q268 665 277 664Q351 652 390 611T430 522Q430 470 396 421T302 350L299 348Q299 347 308 345T337 336T375 315Q457 262 457 175Q457 96 395 37T238 -22Q158 -22 100 21T42 130Q42 158 60 175T105 193Q133 193 151 175T169 130Q169 119 166 110T159 94T148 82T136 74T126 70T118 67L114 66Q165 21 238 21Q293 21 321 74Q338 107 338 175V195Q338 290 274 322Q259 328 213 329L171 330L168 332Q166 335 166 348Q166 366 174 366Q202 366 232 371Q266 376 294 413T322 525V533Q322 590 287 612Q265 626 240 626Q208 626 181 615T143 592T132 580H135Q138 579 143 578T153 573T165 566T175 555T183 540T186 520Q186 498 172 481T127 463Z"/>
            </defs>
            <g stroke="currentColor" fill="currentColor" stroke-width="0" transform="scale(1,-1)">
              <g data-mml-node="math" data-semantic-type="relseq" data-semantic-role="equality" data-semantic-id="5" data-semantic-children="0,4" data-semantic-content="1" data-semantic-speech="x equals negative 3">
                <g data-mml-node="mi" data-semantic-type="identifier" data-semantic-role="latinletter" data-semantic-font="italic" data-semantic-annotation="clearspeak:simple" data-semantic-id="0" data-semantic-parent="5" data-semantic-speech="x">
                  <use data-c="1D465" xlink:href="#prefigure-el1b-sample-MJX-8-TEX-I-1D465"/>
                </g>
                <g data-mml-node="mo" data-semantic-type="relation" data-semantic-role="equality" data-semantic-id="1" data-semantic-parent="5" data-semantic-operator="relseq,=" data-semantic-speech="equals" transform="translate(849.8,0)">
                  <use data-c="3D" xlink:href="#prefigure-el1b-sample-MJX-8-TEX-N-3D"/>
                </g>
                <g data-mml-node="mrow" data-semantic-type="prefixop" data-semantic-role="negative" data-semantic-annotation="clearspeak:simple" data-semantic-id="4" data-semantic-children="3" data-semantic-content="2" data-semantic-parent="5" data-semantic-speech="negative 3" transform="translate(1905.6,0)">
                  <g data-mml-node="mo" data-semantic-type="operator" data-semantic-role="subtraction" data-semantic-id="2" data-semantic-parent="4" data-semantic-operator="prefixop,−" data-semantic-speech="minus">
                    <use data-c="2212" xlink:href="#prefigure-el1b-sample-MJX-8-TEX-N-2212"/>
                  </g>
                  <g data-mml-node="mn" data-semantic-type="number" data-semantic-role="integer" data-semantic-font="normal" data-semantic-annotation="clearspeak:simple" data-semantic-id="3" data-semantic-parent="4" data-semantic-speech="3" transform="translate(778,0)">
                    <use data-c="33" xlink:href="#prefigure-el1b-sample-MJX-8-TEX-N-33"/>
                  </g>
                </g>
              </g>
            </g>
          </svg>
        </g>
      </g>
    </g>
    <line x1="110.0" y1="305.0" x2="110.0" y2="5.0" stroke="blue" stroke-width="2" stroke-dasharray="4 4" fill="none"/>
  </g>
</svg>
